<?xml version="1.0" encoding="UTF-8" standalone="no" ?>
<!DOCTYPE svg PUBLIC "-//W3C//DTD SVG 1.1//EN" "http://www.w3.org/Graphics/SVG/1.1/DTD/svg11.dtd">
<svg xmlns="http://www.w3.org/2000/svg" xmlns:xlink="http://www.w3.org/1999/xlink" version="1.1" width="1080" height="1080" viewBox="0 0 1080 1080" xml:space="preserve">
<desc>Created with Fabric.js 5.2.4</desc>
<defs>
</defs>
<g transform="matrix(1 0 0 1 540 540)" id="9c298fb3-d296-44a8-aee8-f1e3d404dd2b"  >
<rect style="stroke: none; stroke-width: 1; stroke-dasharray: none; stroke-linecap: butt; stroke-dashoffset: 0; stroke-linejoin: miter; stroke-miterlimit: 4; fill: rgb(255,255,255); fill-rule: nonzero; opacity: 1; visibility: hidden;" vector-effect="non-scaling-stroke"  x="-540" y="-540" rx="0" ry="0" width="1080" height="1080" />
</g>
<g transform="matrix(1 0 0 1 540 540)" id="fbf0a391-6687-4f90-b835-aa7b9a3624dd"  >
</g>
<g transform="matrix(1 0 0 1 50 50)"  >
<rect style="stroke: none; stroke-width: 1; stroke-dasharray: none; stroke-linecap: butt; stroke-dashoffset: 0; stroke-linejoin: miter; stroke-miterlimit: 4; fill: rgb(255,255,255); fill-opacity: 0; fill-rule: nonzero; opacity: 1;" vector-effect="non-scaling-stroke"  x="-50" y="-50" rx="0" ry="0" width="100" height="100" />
</g>
<g transform="matrix(1 0 0 1 540 540)" id="d23ee582-ccef-49bc-ba68-ed9a01d624a1"  >
<rect style="stroke: none; stroke-width: 1; stroke-dasharray: none; stroke-linecap: butt; stroke-dashoffset: 0; stroke-linejoin: miter; stroke-miterlimit: 4; fill: rgb(255,255,255); fill-rule: nonzero; opacity: 1; visibility: hidden;" vector-effect="non-scaling-stroke"  x="-540" y="-540" rx="0" ry="0" width="1080" height="1080" />
</g>
<g transform="matrix(3.49 -2.27 0.89 1.37 266.06 563.37)" id="35"  >
<circle style="stroke: rgb(101,101,101); stroke-width: 7; stroke-dasharray: none; stroke-linecap: butt; stroke-dashoffset: 0; stroke-linejoin: miter; stroke-miterlimit: 4; fill: rgb(46,46,50); fill-rule: nonzero; opacity: 1;" vector-effect="non-scaling-stroke"  cx="0" cy="0" r="35" />
</g>
<g transform="matrix(1.71 -0.85 0.56 1.12 646.02 915.18)"  >
<polygon style="stroke: rgb(101,101,101); stroke-width: 2; stroke-dasharray: none; stroke-linecap: butt; stroke-dashoffset: 0; stroke-linejoin: miter; stroke-miterlimit: 4; fill: rgb(254,183,92); fill-rule: nonzero; opacity: 1;" vector-effect="non-scaling-stroke"  points="-37.43,32.41 0,-32.41 37.43,32.41 " />
</g>
<g transform="matrix(1.83 0.55 -0.36 1.2 430.07 913.35)" id="2"  >
<polygon style="stroke: rgb(101,101,101); stroke-width: 2; stroke-dasharray: none; stroke-linecap: butt; stroke-dashoffset: 0; stroke-linejoin: miter; stroke-miterlimit: 4; fill: rgb(254,183,92); fill-rule: nonzero; opacity: 1;" vector-effect="non-scaling-stroke"  points="-37.43,32.41 0,-32.41 37.43,32.41 " />
</g>
<g transform="matrix(6.35 0 0 8.47 540.07 636.55)" id="14"  >
<circle style="stroke: rgb(101,101,101); stroke-width: 6; stroke-dasharray: none; stroke-linecap: butt; stroke-dashoffset: 0; stroke-linejoin: miter; stroke-miterlimit: 4; fill: rgb(46,46,50); fill-rule: nonzero; opacity: 1;" vector-effect="non-scaling-stroke"  cx="0" cy="0" r="35" />
</g>
<g transform="matrix(4.01 0 0 7.8 540.09 598.25)" id="14"  >
<circle style="stroke: rgb(0,0,0); stroke-width: 0; stroke-dasharray: none; stroke-linecap: butt; stroke-dashoffset: 0; stroke-linejoin: miter; stroke-miterlimit: 4; fill: rgb(230,230,230); fill-rule: nonzero; opacity: 1;" vector-effect="non-scaling-stroke"  cx="0" cy="0" r="35" />
</g>
<g transform="matrix(0.39 0 0 0.39 351.54 59.88)"  >
<rect style="stroke: none; stroke-width: 1; stroke-dasharray: none; stroke-linecap: butt; stroke-dashoffset: 0; stroke-linejoin: miter; stroke-miterlimit: 4; fill: rgb(255,255,255); fill-opacity: 0; fill-rule: nonzero; opacity: 1;" vector-effect="non-scaling-stroke"  x="-50" y="-50" rx="0" ry="0" width="100" height="100" />
</g>
<g transform="matrix(0.39 0 0 0.39 542.64 250.98)"  >
<rect style="stroke: none; stroke-width: 1; stroke-dasharray: none; stroke-linecap: butt; stroke-dashoffset: 0; stroke-linejoin: miter; stroke-miterlimit: 4; fill: rgb(55,53,53); fill-opacity: 0; fill-rule: nonzero; opacity: 1;" vector-effect="non-scaling-stroke"  x="-540" y="-540" rx="0" ry="0" width="1080" height="1080" />
</g>
<g transform="matrix(5.58 0 0 5.58 542.47 250.81)"  >
<circle style="stroke: rgb(255,255,255); stroke-width: 0; stroke-dasharray: none; stroke-linecap: butt; stroke-dashoffset: 0; stroke-linejoin: miter; stroke-miterlimit: 4; fill: rgb(46,46,50); fill-rule: nonzero; opacity: 1;" vector-effect="non-scaling-stroke"  cx="0" cy="0" r="35" />
</g>
<g transform="matrix(-1.7 0 0 -0.91 542.85 339.72)"  >
<polygon style="stroke: rgb(0,0,0); stroke-width: 0; stroke-dasharray: none; stroke-linecap: butt; stroke-dashoffset: 0; stroke-linejoin: miter; stroke-miterlimit: 4; fill: rgb(254,183,92); fill-rule: nonzero; opacity: 1;" vector-effect="non-scaling-stroke"  points="-37.43,32.41 0,-32.41 37.43,32.41 " />
</g>
<g transform="matrix(-1.26 0 0 -0.68 543.28 332.21)"  >
<polygon style="stroke: rgb(0,0,0); stroke-width: 0; stroke-dasharray: none; stroke-linecap: butt; stroke-dashoffset: 0; stroke-linejoin: miter; stroke-miterlimit: 4; fill: rgb(247,211,108); fill-rule: nonzero; opacity: 1;" vector-effect="non-scaling-stroke"  points="-37.43,32.41 0,-32.41 37.43,32.41 " />
</g>
<g transform="matrix(2.35 0 0 2.35 447.01 231.92)" clip-path="url(#CLIPPATH_5)"  >
<clipPath id="CLIPPATH_5" >
	<rect transform="matrix(0.17 0 0 0.17 40.85 8.23)" id="_clipPath_oQOpAlaS5aQPNgwhNjsJr8QwgeI7VsJ1" x="-24" y="-24" rx="0" ry="0" width="48" height="48" />
</clipPath>
<rect style="stroke: none; stroke-width: 1; stroke-dasharray: none; stroke-linecap: butt; stroke-dashoffset: 0; stroke-linejoin: miter; stroke-miterlimit: 4; fill: rgb(0,0,0); fill-opacity: 0; fill-rule: nonzero; opacity: 1;" vector-effect="non-scaling-stroke"  x="-24" y="-24" rx="0" ry="0" width="48" height="48" />
</g>
<g transform="matrix(2.35 0 0 2.35 447.01 231.92)" clip-path="url(#CLIPPATH_6)"  >
<clipPath id="CLIPPATH_6" >
	<rect transform="matrix(0.17 0 0 0.17 40.85 8.23)" id="_clipPath_oQOpAlaS5aQPNgwhNjsJr8QwgeI7VsJ1" x="-24" y="-24" rx="0" ry="0" width="48" height="48" />
</clipPath>
<path style="stroke: none; stroke-width: 1; stroke-dasharray: none; stroke-linecap: butt; stroke-dashoffset: 0; stroke-linejoin: miter; stroke-miterlimit: 10; fill: rgb(46,46,50); fill-rule: nonzero; opacity: 1;" vector-effect="non-scaling-stroke"  transform=" translate(-24, -24)" d="M 4 0 L 44 0 C 46.208 0 48 1.792 48 4 L 48 44 C 48 46.208 46.208 48 44 48 L 4 48 C 1.792 48 0 46.208 0 44 L 0 4 C 0 1.792 1.792 0 4 0 Z" stroke-linecap="round" />
</g>
<g transform="matrix(2.35 0 0 2.35 446.98 231.89)" clip-path="url(#CLIPPATH_7)"  >
<clipPath id="CLIPPATH_7" >
	<rect transform="matrix(0.17 0 0 0.17 40.85 8.23)" id="_clipPath_oQOpAlaS5aQPNgwhNjsJr8QwgeI7VsJ1" x="-24" y="-24" rx="0" ry="0" width="48" height="48" />
</clipPath>
<path style="stroke: none; stroke-width: 1; stroke-dasharray: none; stroke-linecap: butt; stroke-dashoffset: 0; stroke-linejoin: miter; stroke-miterlimit: 4; fill: rgb(225,225,230); fill-rule: nonzero; opacity: 1;" vector-effect="non-scaling-stroke"  transform=" translate(-24, -24)" d="M 19 27 L 19 15 C 19 13.896 18.104 13 17 13 L 13 13 L 13 30 C 13 32.76 15.24 35 18 35 L 35 35 L 35 31 C 35 29.896 34.104 29 33 29 L 21 29 C 19.896 29 19 28.104 19 27 Z" stroke-linecap="round" />
</g>
<g transform="matrix(2.35 0 0 2.35 456.36 222.49)" clip-path="url(#CLIPPATH_8)"  >
<clipPath id="CLIPPATH_8" >
	<rect transform="matrix(0.17 0 0 0.17 35.52 13.56)" id="_clipPath_oQOpAlaS5aQPNgwhNjsJr8QwgeI7VsJ1" x="-24" y="-24" rx="0" ry="0" width="48" height="48" />
</clipPath>
<path style="stroke: none; stroke-width: 1; stroke-dasharray: none; stroke-linecap: butt; stroke-dashoffset: 0; stroke-linejoin: miter; stroke-miterlimit: 4; fill: rgb(147,221,250); fill-rule: nonzero; opacity: 1;" vector-effect="non-scaling-stroke"  transform=" translate(-28, -20)" d="M 24 22 L 24 16 L 29 19 L 32 24 L 26 24 C 24.896 24 24 23.104 24 22 Z" stroke-linecap="round" />
</g>
<g transform="matrix(2.35 0 0 2.35 456.36 222.49)" clip-path="url(#CLIPPATH_9)"  >
<clipPath id="CLIPPATH_9" >
	<rect transform="matrix(0.17 0 0 0.17 35.52 13.56)" id="_clipPath_oQOpAlaS5aQPNgwhNjsJr8QwgeI7VsJ1" x="-24" y="-24" rx="0" ry="0" width="48" height="48" />
</clipPath>
<path style="stroke: none; stroke-width: 1; stroke-dasharray: none; stroke-linecap: butt; stroke-dashoffset: 0; stroke-linejoin: miter; stroke-miterlimit: 4; fill: rgb(255,169,77); fill-rule: nonzero; opacity: 1;" vector-effect="non-scaling-stroke"  transform=" translate(-28, -20)" d="M 35 13 L 21 13 L 35 27 L 35 13 Z" stroke-linecap="round" />
</g>
<g transform="matrix(2.35 0 0 2.35 456.36 222.49)" clip-path="url(#CLIPPATH_10)"  >
<clipPath id="CLIPPATH_10" >
	<rect transform="matrix(0.17 0 0 0.17 35.52 13.56)" id="_clipPath_oQOpAlaS5aQPNgwhNjsJr8QwgeI7VsJ1" x="-24" y="-24" rx="0" ry="0" width="48" height="48" />
</clipPath>
<path style="stroke: none; stroke-width: 1; stroke-dasharray: none; stroke-linecap: butt; stroke-dashoffset: 0; stroke-linejoin: miter; stroke-miterlimit: 4; fill: rgb(247,201,92); fill-rule: nonzero; opacity: 1;" vector-effect="non-scaling-stroke"  transform=" translate(-28, -20)" d="M 32 16 L 24 16 L 32 24 L 32 16 Z" stroke-linecap="round" />
</g>
<g transform="matrix(2.41 0 0 2.41 637.74 233.3)" clip-path="url(#CLIPPATH_11)"  >
<clipPath id="CLIPPATH_11" >
	<rect transform="matrix(0.16 0 0 0.16 -39.53 7.34)" id="_clipPath_oQOpAlaS5aQPNgwhNjsJr8QwgeI7VsJ1" x="-24" y="-24" rx="0" ry="0" width="48" height="48" />
</clipPath>
<rect style="stroke: none; stroke-width: 1; stroke-dasharray: none; stroke-linecap: butt; stroke-dashoffset: 0; stroke-linejoin: miter; stroke-miterlimit: 4; fill: rgb(0,0,0); fill-opacity: 0; fill-rule: nonzero; opacity: 1;" vector-effect="non-scaling-stroke"  x="-24" y="-24" rx="0" ry="0" width="48" height="48" />
</g>
<g transform="matrix(2.41 0 0 2.41 637.74 233.3)" clip-path="url(#CLIPPATH_12)"  >
<clipPath id="CLIPPATH_12" >
	<rect transform="matrix(0.16 0 0 0.16 -39.53 7.34)" id="_clipPath_oQOpAlaS5aQPNgwhNjsJr8QwgeI7VsJ1" x="-24" y="-24" rx="0" ry="0" width="48" height="48" />
</clipPath>
<path style="stroke: none; stroke-width: 1; stroke-dasharray: none; stroke-linecap: butt; stroke-dashoffset: 0; stroke-linejoin: miter; stroke-miterlimit: 10; fill: rgb(46,46,50); fill-rule: nonzero; opacity: 1;" vector-effect="non-scaling-stroke"  transform=" translate(-24, -24)" d="M 4 0 L 44 0 C 46.208 0 48 1.792 48 4 L 48 44 C 48 46.208 46.208 48 44 48 L 4 48 C 1.792 48 0 46.208 0 44 L 0 4 C 0 1.792 1.792 0 4 0 Z" stroke-linecap="round" />
</g>
<g transform="matrix(2.41 0 0 2.41 637.69 233.25)" clip-path="url(#CLIPPATH_13)"  >
<clipPath id="CLIPPATH_13" >
	<rect transform="matrix(0.16 0 0 0.16 -39.53 7.34)" id="_clipPath_oQOpAlaS5aQPNgwhNjsJr8QwgeI7VsJ1" x="-24" y="-24" rx="0" ry="0" width="48" height="48" />
</clipPath>
<path style="stroke: none; stroke-width: 1; stroke-dasharray: none; stroke-linecap: butt; stroke-dashoffset: 0; stroke-linejoin: miter; stroke-miterlimit: 4; fill: rgb(225,225,230); fill-rule: nonzero; opacity: 1;" vector-effect="non-scaling-stroke"  transform=" translate(-24, -24)" d="M 19 27 L 19 15 C 19 13.896 18.104 13 17 13 L 13 13 L 13 30 C 13 32.76 15.24 35 18 35 L 35 35 L 35 31 C 35 29.896 34.104 29 33 29 L 21 29 C 19.896 29 19 28.104 19 27 Z" stroke-linecap="round" />
</g>
<g transform="matrix(2.41 0 0 2.41 647.29 223.6)" clip-path="url(#CLIPPATH_14)"  >
<clipPath id="CLIPPATH_14" >
	<rect transform="matrix(0.16 0 0 0.16 -44.83 12.63)" id="_clipPath_oQOpAlaS5aQPNgwhNjsJr8QwgeI7VsJ1" x="-24" y="-24" rx="0" ry="0" width="48" height="48" />
</clipPath>
<path style="stroke: none; stroke-width: 1; stroke-dasharray: none; stroke-linecap: butt; stroke-dashoffset: 0; stroke-linejoin: miter; stroke-miterlimit: 4; fill: rgb(147,221,250); fill-rule: nonzero; opacity: 1;" vector-effect="non-scaling-stroke"  transform=" translate(-28, -20)" d="M 24 22 L 24 16 L 29 19 L 32 24 L 26 24 C 24.896 24 24 23.104 24 22 Z" stroke-linecap="round" />
</g>
<g transform="matrix(2.41 0 0 2.41 647.3 223.61)" clip-path="url(#CLIPPATH_15)"  >
<clipPath id="CLIPPATH_15" >
	<rect transform="matrix(0.16 0 0 0.16 -44.83 12.63)" id="_clipPath_oQOpAlaS5aQPNgwhNjsJr8QwgeI7VsJ1" x="-24" y="-24" rx="0" ry="0" width="48" height="48" />
</clipPath>
<path style="stroke: none; stroke-width: 1; stroke-dasharray: none; stroke-linecap: butt; stroke-dashoffset: 0; stroke-linejoin: miter; stroke-miterlimit: 4; fill: rgb(255,169,77); fill-rule: nonzero; opacity: 1;" vector-effect="non-scaling-stroke"  transform=" translate(-28, -20)" d="M 35 13 L 21 13 L 35 27 L 35 13 Z" stroke-linecap="round" />
</g>
<g transform="matrix(2.41 0 0 2.41 647.29 223.6)" clip-path="url(#CLIPPATH_16)"  >
<clipPath id="CLIPPATH_16" >
	<rect transform="matrix(0.16 0 0 0.16 -44.83 12.63)" id="_clipPath_oQOpAlaS5aQPNgwhNjsJr8QwgeI7VsJ1" x="-24" y="-24" rx="0" ry="0" width="48" height="48" />
</clipPath>
<path style="stroke: none; stroke-width: 1; stroke-dasharray: none; stroke-linecap: butt; stroke-dashoffset: 0; stroke-linejoin: miter; stroke-miterlimit: 4; fill: rgb(247,201,92); fill-rule: nonzero; opacity: 1;" vector-effect="non-scaling-stroke"  transform=" translate(-28, -20)" d="M 32 16 L 24 16 L 32 24 L 32 16 Z" stroke-linecap="round" />
</g>
<g transform="matrix(2.21 0 0 0.98 542.63 91.18)"  >
<circle style="stroke: rgb(0,0,0); stroke-width: 0; stroke-dasharray: none; stroke-linecap: butt; stroke-dashoffset: 0; stroke-linejoin: miter; stroke-miterlimit: 4; fill: rgb(101,101,101); fill-rule: nonzero; opacity: 1;" vector-effect="non-scaling-stroke"  cx="0" cy="0" r="35" />
</g>
<g transform="matrix(2.21 0 0 0.98 488.83 117.44)"  >
<circle style="stroke: rgb(0,0,0); stroke-width: 0; stroke-dasharray: none; stroke-linecap: butt; stroke-dashoffset: 0; stroke-linejoin: miter; stroke-miterlimit: 4; fill: rgb(101,101,101); fill-rule: nonzero; opacity: 1;" vector-effect="non-scaling-stroke"  cx="0" cy="0" r="35" />
</g>
<g transform="matrix(2.21 0 0 0.98 601.64 121.34)"  >
<circle style="stroke: rgb(0,0,0); stroke-width: 0; stroke-dasharray: none; stroke-linecap: butt; stroke-dashoffset: 0; stroke-linejoin: miter; stroke-miterlimit: 4; fill: rgb(101,101,101); fill-rule: nonzero; opacity: 1;" vector-effect="non-scaling-stroke"  cx="0" cy="0" r="35" />
</g>
<g transform="matrix(1.94 -0.87 0.4 0.89 504 106.4)"  >
<circle style="stroke: rgb(0,0,0); stroke-width: 0; stroke-dasharray: none; stroke-linecap: butt; stroke-dashoffset: 0; stroke-linejoin: miter; stroke-miterlimit: 4; fill: rgb(101,101,101); fill-rule: nonzero; opacity: 1;" vector-effect="non-scaling-stroke"  cx="0" cy="0" r="35" />
</g>
<g transform="matrix(1.95 -0.88 0.4 0.89 479.34 103.7)"  >
<circle style="stroke: rgb(0,0,0); stroke-width: 0; stroke-dasharray: none; stroke-linecap: butt; stroke-dashoffset: 0; stroke-linejoin: miter; stroke-miterlimit: 4; fill: rgb(101,101,101); fill-rule: nonzero; opacity: 1;" vector-effect="non-scaling-stroke"  cx="0" cy="0" r="35" />
</g>
<g transform="matrix(1.96 0.83 -0.38 0.9 594.68 101.24)"  >
<circle style="stroke: rgb(0,0,0); stroke-width: 0; stroke-dasharray: none; stroke-linecap: butt; stroke-dashoffset: 0; stroke-linejoin: miter; stroke-miterlimit: 4; fill: rgb(101,101,101); fill-rule: nonzero; opacity: 1;" vector-effect="non-scaling-stroke"  cx="0" cy="0" r="35" />
</g>
<g transform="matrix(1.96 0.83 -0.38 0.9 604.34 102.26)"  >
<circle style="stroke: rgb(0,0,0); stroke-width: 0; stroke-dasharray: none; stroke-linecap: butt; stroke-dashoffset: 0; stroke-linejoin: miter; stroke-miterlimit: 4; fill: rgb(101,101,101); fill-rule: nonzero; opacity: 1;" vector-effect="non-scaling-stroke"  cx="0" cy="0" r="35" />
</g>
<g transform="matrix(1.96 0.83 -0.38 0.9 613.29 106.88)"  >
<circle style="stroke: rgb(0,0,0); stroke-width: 0; stroke-dasharray: none; stroke-linecap: butt; stroke-dashoffset: 0; stroke-linejoin: miter; stroke-miterlimit: 4; fill: rgb(101,101,101); fill-rule: nonzero; opacity: 1;" vector-effect="non-scaling-stroke"  cx="0" cy="0" r="35" />
</g>
<g transform="matrix(1.95 -0.88 0.4 0.89 468.8 108.33)"  >
<circle style="stroke: rgb(0,0,0); stroke-width: 0; stroke-dasharray: none; stroke-linecap: butt; stroke-dashoffset: 0; stroke-linejoin: miter; stroke-miterlimit: 4; fill: rgb(101,101,101); fill-rule: nonzero; opacity: 1;" vector-effect="non-scaling-stroke"  cx="0" cy="0" r="35" />
</g>
<g transform="matrix(4.72 0 0 4.72 543 249.86)"  >
<path style="stroke: rgb(0,0,0); stroke-width: 0; stroke-dasharray: none; stroke-linecap: butt; stroke-dashoffset: 0; stroke-linejoin: miter; stroke-miterlimit: 4; fill: rgb(101,101,101); fill-rule: nonzero; opacity: 1;" vector-effect="non-scaling-stroke"  transform=" translate(-50, -50)" d="M 50 92.875 C 26.358 92.875 7.125 73.642 7.125 50 C 7.125 26.358000000000004 26.358 7.125 50 7.125 C 73.642 7.125 92.875 26.358 92.875 50 C 92.875 73.642 73.642 92.875 50 92.875 z M 50 9.125 C 27.461 9.125 9.125 27.461 9.125 50 C 9.125 72.538 27.461 90.875 50 90.875 C 72.538 90.875 90.875 72.538 90.875 50 C 90.875 27.461 72.538 9.125 50 9.125 z" stroke-linecap="round" />
</g>
<g transform="matrix(2.44 0 0 2.44 444.08 225.86)"  >
<g style="" vector-effect="non-scaling-stroke"   >
		<g transform="matrix(1 0 0 1 0 0)" clip-path="url(#CLIPPATH_17)"  >
<clipPath id="CLIPPATH_17" >
	<rect transform="matrix(1 0 0 1 0 0)" id="_clipPath_oQOpAlaS5aQPNgwhNjsJr8QwgeI7VsJ1" x="-24" y="-24" rx="0" ry="0" width="48" height="48" />
</clipPath>
<rect style="stroke: none; stroke-width: 1; stroke-dasharray: none; stroke-linecap: butt; stroke-dashoffset: 0; stroke-linejoin: miter; stroke-miterlimit: 4; fill: rgb(0,0,0); fill-opacity: 0; fill-rule: nonzero; opacity: 1;" vector-effect="non-scaling-stroke"  x="-24" y="-24" rx="0" ry="0" width="48" height="48" />
</g>
		<g transform="matrix(1 0 0 1 0 0)" clip-path="url(#CLIPPATH_18)"  >
<clipPath id="CLIPPATH_18" >
	<rect transform="matrix(1 0 0 1 0 0)" id="_clipPath_oQOpAlaS5aQPNgwhNjsJr8QwgeI7VsJ1" x="-24" y="-24" rx="0" ry="0" width="48" height="48" />
</clipPath>
<path style="stroke: none; stroke-width: 1; stroke-dasharray: none; stroke-linecap: butt; stroke-dashoffset: 0; stroke-linejoin: miter; stroke-miterlimit: 10; fill: rgb(46,46,50); fill-rule: nonzero; opacity: 1;" vector-effect="non-scaling-stroke"  transform=" translate(-24, -24)" d="M 4 0 L 44 0 C 46.208 0 48 1.792 48 4 L 48 44 C 48 46.208 46.208 48 44 48 L 4 48 C 1.792 48 0 46.208 0 44 L 0 4 C 0 1.792 1.792 0 4 0 Z" stroke-linecap="round" />
</g>
		<g transform="matrix(1 0 0 1 0 0)" clip-path="url(#CLIPPATH_19)"  >
<clipPath id="CLIPPATH_19" >
	<rect transform="matrix(1 0 0 1 0 0)" id="_clipPath_oQOpAlaS5aQPNgwhNjsJr8QwgeI7VsJ1" x="-24" y="-24" rx="0" ry="0" width="48" height="48" />
</clipPath>
<path style="stroke: none; stroke-width: 1; stroke-dasharray: none; stroke-linecap: butt; stroke-dashoffset: 0; stroke-linejoin: miter; stroke-miterlimit: 4; fill: rgb(225,225,230); fill-rule: nonzero; opacity: 1;" vector-effect="non-scaling-stroke"  transform=" translate(-24, -24)" d="M 19 27 L 19 15 C 19 13.896 18.104 13 17 13 L 13 13 L 13 30 C 13 32.76 15.24 35 18 35 L 35 35 L 35 31 C 35 29.896 34.104 29 33 29 L 21 29 C 19.896 29 19 28.104 19 27 Z" stroke-linecap="round" />
</g>
		<g transform="matrix(1 0 0 1 4 -4)" clip-path="url(#CLIPPATH_20)"  >
<clipPath id="CLIPPATH_20" >
	<rect transform="matrix(1 0 0 1 -4 4)" id="_clipPath_oQOpAlaS5aQPNgwhNjsJr8QwgeI7VsJ1" x="-24" y="-24" rx="0" ry="0" width="48" height="48" />
</clipPath>
<path style="stroke: none; stroke-width: 1; stroke-dasharray: none; stroke-linecap: butt; stroke-dashoffset: 0; stroke-linejoin: miter; stroke-miterlimit: 4; fill: rgb(147,221,250); fill-rule: nonzero; opacity: 1;" vector-effect="non-scaling-stroke"  transform=" translate(-28, -20)" d="M 24 22 L 24 16 L 29 19 L 32 24 L 26 24 C 24.896 24 24 23.104 24 22 Z" stroke-linecap="round" />
</g>
		<g transform="matrix(1 0 0 1 4 -4)" clip-path="url(#CLIPPATH_21)"  >
<clipPath id="CLIPPATH_21" >
	<rect transform="matrix(1 0 0 1 -4 4)" id="_clipPath_oQOpAlaS5aQPNgwhNjsJr8QwgeI7VsJ1" x="-24" y="-24" rx="0" ry="0" width="48" height="48" />
</clipPath>
<path style="stroke: none; stroke-width: 1; stroke-dasharray: none; stroke-linecap: butt; stroke-dashoffset: 0; stroke-linejoin: miter; stroke-miterlimit: 4; fill: rgb(255,169,77); fill-rule: nonzero; opacity: 1;" vector-effect="non-scaling-stroke"  transform=" translate(-28, -20)" d="M 35 13 L 21 13 L 35 27 L 35 13 Z" stroke-linecap="round" />
</g>
		<g transform="matrix(1 0 0 1 4 -4)" clip-path="url(#CLIPPATH_22)"  >
<clipPath id="CLIPPATH_22" >
	<rect transform="matrix(1 0 0 1 -4 4)" id="_clipPath_oQOpAlaS5aQPNgwhNjsJr8QwgeI7VsJ1" x="-24" y="-24" rx="0" ry="0" width="48" height="48" />
</clipPath>
<path style="stroke: none; stroke-width: 1; stroke-dasharray: none; stroke-linecap: butt; stroke-dashoffset: 0; stroke-linejoin: miter; stroke-miterlimit: 4; fill: rgb(247,201,92); fill-rule: nonzero; opacity: 1;" vector-effect="non-scaling-stroke"  transform=" translate(-28, -20)" d="M 32 16 L 24 16 L 32 24 L 32 16 Z" stroke-linecap="round" />
</g>
</g>
</g>
<g transform="matrix(2.14 0 0 0.98 542.6 89.84)"  >
<circle style="stroke: rgb(0,0,0); stroke-width: 0; stroke-dasharray: none; stroke-linecap: butt; stroke-dashoffset: 0; stroke-linejoin: miter; stroke-miterlimit: 4; fill: rgb(101,101,101); fill-rule: nonzero; opacity: 1;" vector-effect="non-scaling-stroke"  cx="0" cy="0" r="35" />
</g>
<g transform="matrix(2.6 0 0 2.6 635.4 226.7)"  >
<g style="" vector-effect="non-scaling-stroke"   >
		<g transform="matrix(1 0 0 1 0 0)" clip-path="url(#CLIPPATH_23)"  >
<clipPath id="CLIPPATH_23" >
	<rect transform="matrix(1 0 0 1 0 0)" id="_clipPath_oQOpAlaS5aQPNgwhNjsJr8QwgeI7VsJ1" x="-24" y="-24" rx="0" ry="0" width="48" height="48" />
</clipPath>
<rect style="stroke: none; stroke-width: 1; stroke-dasharray: none; stroke-linecap: butt; stroke-dashoffset: 0; stroke-linejoin: miter; stroke-miterlimit: 4; fill: rgb(0,0,0); fill-opacity: 0; fill-rule: nonzero; opacity: 1;" vector-effect="non-scaling-stroke"  x="-24" y="-24" rx="0" ry="0" width="48" height="48" />
</g>
		<g transform="matrix(1 0 0 1 0 0)" clip-path="url(#CLIPPATH_24)"  >
<clipPath id="CLIPPATH_24" >
	<rect transform="matrix(1 0 0 1 0 0)" id="_clipPath_oQOpAlaS5aQPNgwhNjsJr8QwgeI7VsJ1" x="-24" y="-24" rx="0" ry="0" width="48" height="48" />
</clipPath>
<path style="stroke: none; stroke-width: 1; stroke-dasharray: none; stroke-linecap: butt; stroke-dashoffset: 0; stroke-linejoin: miter; stroke-miterlimit: 10; fill: rgb(46,46,50); fill-rule: nonzero; opacity: 1;" vector-effect="non-scaling-stroke"  transform=" translate(-24, -24)" d="M 4 0 L 44 0 C 46.208 0 48 1.792 48 4 L 48 44 C 48 46.208 46.208 48 44 48 L 4 48 C 1.792 48 0 46.208 0 44 L 0 4 C 0 1.792 1.792 0 4 0 Z" stroke-linecap="round" />
</g>
		<g transform="matrix(1 0 0 1 0 0)" clip-path="url(#CLIPPATH_25)"  >
<clipPath id="CLIPPATH_25" >
	<rect transform="matrix(1 0 0 1 0 0)" id="_clipPath_oQOpAlaS5aQPNgwhNjsJr8QwgeI7VsJ1" x="-24" y="-24" rx="0" ry="0" width="48" height="48" />
</clipPath>
<path style="stroke: none; stroke-width: 1; stroke-dasharray: none; stroke-linecap: butt; stroke-dashoffset: 0; stroke-linejoin: miter; stroke-miterlimit: 4; fill: rgb(225,225,230); fill-rule: nonzero; opacity: 1;" vector-effect="non-scaling-stroke"  transform=" translate(-24, -24)" d="M 19 27 L 19 15 C 19 13.896 18.104 13 17 13 L 13 13 L 13 30 C 13 32.76 15.24 35 18 35 L 35 35 L 35 31 C 35 29.896 34.104 29 33 29 L 21 29 C 19.896 29 19 28.104 19 27 Z" stroke-linecap="round" />
</g>
		<g transform="matrix(1 0 0 1 4 -4)" clip-path="url(#CLIPPATH_26)"  >
<clipPath id="CLIPPATH_26" >
	<rect transform="matrix(1 0 0 1 -4 4)" id="_clipPath_oQOpAlaS5aQPNgwhNjsJr8QwgeI7VsJ1" x="-24" y="-24" rx="0" ry="0" width="48" height="48" />
</clipPath>
<path style="stroke: none; stroke-width: 1; stroke-dasharray: none; stroke-linecap: butt; stroke-dashoffset: 0; stroke-linejoin: miter; stroke-miterlimit: 4; fill: rgb(147,221,250); fill-rule: nonzero; opacity: 1;" vector-effect="non-scaling-stroke"  transform=" translate(-28, -20)" d="M 24 22 L 24 16 L 29 19 L 32 24 L 26 24 C 24.896 24 24 23.104 24 22 Z" stroke-linecap="round" />
</g>
		<g transform="matrix(1 0 0 1 4 -4)" clip-path="url(#CLIPPATH_27)"  >
<clipPath id="CLIPPATH_27" >
	<rect transform="matrix(1 0 0 1 -4 4)" id="_clipPath_oQOpAlaS5aQPNgwhNjsJr8QwgeI7VsJ1" x="-24" y="-24" rx="0" ry="0" width="48" height="48" />
</clipPath>
<path style="stroke: none; stroke-width: 1; stroke-dasharray: none; stroke-linecap: butt; stroke-dashoffset: 0; stroke-linejoin: miter; stroke-miterlimit: 4; fill: rgb(255,169,77); fill-rule: nonzero; opacity: 1;" vector-effect="non-scaling-stroke"  transform=" translate(-28, -20)" d="M 35 13 L 21 13 L 35 27 L 35 13 Z" stroke-linecap="round" />
</g>
		<g transform="matrix(1 0 0 1 4 -4)" clip-path="url(#CLIPPATH_28)"  >
<clipPath id="CLIPPATH_28" >
	<rect transform="matrix(1 0 0 1 -4 4)" id="_clipPath_oQOpAlaS5aQPNgwhNjsJr8QwgeI7VsJ1" x="-24" y="-24" rx="0" ry="0" width="48" height="48" />
</clipPath>
<path style="stroke: none; stroke-width: 1; stroke-dasharray: none; stroke-linecap: butt; stroke-dashoffset: 0; stroke-linejoin: miter; stroke-miterlimit: 4; fill: rgb(247,201,92); fill-rule: nonzero; opacity: 1;" vector-effect="non-scaling-stroke"  transform=" translate(-28, -20)" d="M 32 16 L 24 16 L 32 24 L 32 16 Z" stroke-linecap="round" />
</g>
</g>
</g>
<g transform="matrix(0.39 0 0 -0.38 446.71 178.17)"  >
<path style="stroke: rgb(0,0,0); stroke-width: 0; stroke-dasharray: none; stroke-linecap: butt; stroke-dashoffset: 0; stroke-linejoin: miter; stroke-miterlimit: 4; fill: rgb(147,221,250); fill-rule: nonzero; opacity: 1;" vector-effect="non-scaling-stroke"  transform=" translate(-50, -50)" d="M 14.148 44.105 L 18.091 40.162 C 20.01 38.242 23.176000000000002 38.242 25.096 40.162 L 42.164 57.230999999999995 L 74.904 24.440999999999995 C 76.823 22.521999999999995 79.98899999999999 22.521999999999995 81.90899999999999 24.440999999999995 L 85.851 28.383999999999997 C 87.771 30.302999999999997 87.771 33.415 85.851 35.334999999999994 L 45.641 75.54499999999999 L 45.537 75.64899999999999 L 45.433 75.75299999999999 L 45.329 75.80499999999999 L 45.277 75.90899999999999 L 45.173 75.961 L 45.069 76.065 L 44.965 76.117 L 44.861000000000004 76.16900000000001 L 44.757000000000005 76.27400000000002 L 44.653000000000006 76.32400000000001 L 44.54900000000001 76.37800000000001 L 44.44500000000001 76.43000000000002 L 44.34100000000001 76.48200000000003 L 44.23700000000001 76.53400000000003 L 44.08000000000001 76.58600000000004 L 43.97600000000001 76.63800000000005 L 43.872000000000014 76.69000000000005 L 43.768000000000015 76.74200000000006 L 43.664000000000016 76.74200000000006 L 43.56000000000002 76.79400000000007 L 43.405000000000015 76.84700000000007 L 43.301000000000016 76.84700000000007 L 43.19700000000002 76.89900000000007 L 42.93800000000002 76.89900000000007 L 42.83400000000002 76.95100000000008 L 42.62600000000002 76.95100000000008 L 42.47100000000002 77.00300000000009 L 41.795000000000016 77.00300000000009 L 41.640000000000015 76.95100000000008 L 41.432000000000016 76.95100000000008 L 41.32800000000002 76.89900000000007 L 41.06900000000002 76.89900000000007 L 40.96500000000002 76.84700000000007 L 40.86100000000002 76.84700000000007 L 40.70600000000002 76.79400000000007 L 40.60200000000002 76.74200000000006 L 40.49800000000002 76.74200000000006 L 40.39400000000002 76.69000000000005 L 40.29000000000002 76.63800000000005 L 40.185000000000024 76.58600000000004 L 40.081000000000024 76.53400000000003 L 40.029000000000025 76.53400000000003 C 39.563000000000024 76.32500000000003 39.096000000000025 75.96200000000003 38.630000000000024 75.54800000000003 L 14.140000000000025 51.059000000000026 C 12.229 49.137 12.229 46.025 14.148 44.105 z" stroke-linecap="round" />
</g>
<g transform="matrix(0.39 0 0 -0.38 638.85 179.1)"  >
<path style="stroke: rgb(0,0,0); stroke-width: 0; stroke-dasharray: none; stroke-linecap: butt; stroke-dashoffset: 0; stroke-linejoin: miter; stroke-miterlimit: 4; fill: rgb(147,221,250); fill-rule: nonzero; opacity: 1;" vector-effect="non-scaling-stroke"  transform=" translate(-50, -50)" d="M 14.148 44.105 L 18.091 40.162 C 20.01 38.242 23.176000000000002 38.242 25.096 40.162 L 42.164 57.230999999999995 L 74.904 24.440999999999995 C 76.823 22.521999999999995 79.98899999999999 22.521999999999995 81.90899999999999 24.440999999999995 L 85.851 28.383999999999997 C 87.771 30.302999999999997 87.771 33.415 85.851 35.334999999999994 L 45.641 75.54499999999999 L 45.537 75.64899999999999 L 45.433 75.75299999999999 L 45.329 75.80499999999999 L 45.277 75.90899999999999 L 45.173 75.961 L 45.069 76.065 L 44.965 76.117 L 44.861000000000004 76.16900000000001 L 44.757000000000005 76.27400000000002 L 44.653000000000006 76.32400000000001 L 44.54900000000001 76.37800000000001 L 44.44500000000001 76.43000000000002 L 44.34100000000001 76.48200000000003 L 44.23700000000001 76.53400000000003 L 44.08000000000001 76.58600000000004 L 43.97600000000001 76.63800000000005 L 43.872000000000014 76.69000000000005 L 43.768000000000015 76.74200000000006 L 43.664000000000016 76.74200000000006 L 43.56000000000002 76.79400000000007 L 43.405000000000015 76.84700000000007 L 43.301000000000016 76.84700000000007 L 43.19700000000002 76.89900000000007 L 42.93800000000002 76.89900000000007 L 42.83400000000002 76.95100000000008 L 42.62600000000002 76.95100000000008 L 42.47100000000002 77.00300000000009 L 41.795000000000016 77.00300000000009 L 41.640000000000015 76.95100000000008 L 41.432000000000016 76.95100000000008 L 41.32800000000002 76.89900000000007 L 41.06900000000002 76.89900000000007 L 40.96500000000002 76.84700000000007 L 40.86100000000002 76.84700000000007 L 40.70600000000002 76.79400000000007 L 40.60200000000002 76.74200000000006 L 40.49800000000002 76.74200000000006 L 40.39400000000002 76.69000000000005 L 40.29000000000002 76.63800000000005 L 40.185000000000024 76.58600000000004 L 40.081000000000024 76.53400000000003 L 40.029000000000025 76.53400000000003 C 39.563000000000024 76.32500000000003 39.096000000000025 75.96200000000003 38.630000000000024 75.54800000000003 L 14.140000000000025 51.059000000000026 C 12.229 49.137 12.229 46.025 14.148 44.105 z" stroke-linecap="round" />
</g>
<g transform="matrix(-5.4 -1.94 -0.55 1.53 558.48 478.2)" id="35"  >
<circle style="stroke: rgb(101,101,101); stroke-width: 8; stroke-dasharray: none; stroke-linecap: butt; stroke-dashoffset: 0; stroke-linejoin: miter; stroke-miterlimit: 4; fill: rgb(46,46,50); fill-rule: nonzero; opacity: 1;" vector-effect="non-scaling-stroke"  cx="0" cy="0" r="35" />
</g>
</svg>